<?xml version="1.0" encoding="UTF-8" standalone="no"?>
<svg
   xmlns:dc="http://purl.org/dc/elements/1.1/"
   xmlns:cc="http://creativecommons.org/ns#"
   xmlns:rdf="http://www.w3.org/1999/02/22-rdf-syntax-ns#"
   xmlns:svg="http://www.w3.org/2000/svg"
   xmlns="http://www.w3.org/2000/svg"
   xmlns:sodipodi="http://sodipodi.sourceforge.net/DTD/sodipodi-0.dtd"
   xmlns:inkscape="http://www.inkscape.org/namespaces/inkscape"
   version="1.1"
   id="svg2"
   viewBox="0 0 744.09448819 1052.3622047"
   height="297mm"
   width="210mm"
   inkscape:version="0.91 r13725"
   sodipodi:docname="logo.svg">
  <sodipodi:namedview
     pagecolor="#ffffff"
     bordercolor="#666666"
     borderopacity="1"
     objecttolerance="10"
     gridtolerance="10"
     guidetolerance="10"
     inkscape:pageopacity="0"
     inkscape:pageshadow="2"
     inkscape:window-width="1536"
     inkscape:window-height="841"
     id="namedview12"
     showgrid="true"
     inkscape:zoom="0.5"
     inkscape:cx="319.8328"
     inkscape:cy="407.88009"
     inkscape:window-x="-8"
     inkscape:window-y="-8"
     inkscape:window-maximized="1"
     inkscape:current-layer="svg2"
     showguides="false" />
  <defs
     id="defs4" />
  <metadata
     id="metadata7">
    <rdf:RDF>
      <cc:Work
         rdf:about="">
        <dc:format>image/svg+xml</dc:format>
        <dc:type
           rdf:resource="http://purl.org/dc/dcmitype/StillImage" />
        <dc:title />
      </cc:Work>
    </rdf:RDF>
  </metadata>
  <g
     id="layer1"
     transform="matrix(1.3827936,0,0,1.3920613,-144.63229,-189.14241)">
    <path
       id="path3338"
       style="fill:#000000"
       d="M 602.85713,509.50507 A 228.57143,231.42857 0 0 1 374.28571,740.93364 228.57143,231.42857 0 0 1 145.71428,509.50507 228.57143,231.42857 0 0 1 374.28571,278.07649 228.57143,231.42857 0 0 1 602.85713,509.50507 Z" />
    <path
       d="M 477.59998,540.44855 A 144.30252,142.84143 0 0 1 339.40203,683.1621 144.30252,142.84143 0 0 1 189.51143,552.52326 144.30252,142.84143 0 0 1 315.02742,398.75661 144.30252,142.84143 0 0 1 475.53769,516.38555"
       id="path3340"
       style="fill:#ffffff"
       inkscape:connector-curvature="0"
       transform="matrix(0.99682034,-0.07968195,0.07515876,0.99717158,0,0)" />
    <rect
       y="471.77502"
       x="492.83865"
       height="104.10171"
       width="115.84386"
       id="rect3358"
       style="fill:#ffffff"
       ry="0" />
    <rect
       y="360.93362"
       x="314.62897"
       height="314.28571"
       width="31.428572"
       id="rect3364"
       style="fill:#000000" />
    <rect
       y="351.11765"
       x="406.88922"
       height="322.85715"
       width="31.428572"
       id="rect3366"
       style="fill:#000000" />
    <rect
       y="447.23511"
       x="531.42859"
       height="145.71428"
       width="37.142857"
       id="rect3368"
       style="fill:#000000" />
    <path
       sodipodi:type="spiral"
       style="fill:none;fill-rule:evenodd;stroke:#000000;stroke-width:1px;stroke-linecap:butt;stroke-linejoin:miter;stroke-opacity:1"
       id="path3346"
       sodipodi:cx="209.58061"
       sodipodi:cy="26.754967"
       sodipodi:expansion="1"
       sodipodi:revolution="25.222614"
       sodipodi:radius="1.0099454"
       sodipodi:argument="-19.615726"
       sodipodi:t0="0"
       d="m 209.58061,26.754967 c 0.004,-0.0042 0.008,0.0038 0.007,0.0072 -0.002,0.0093 -0.0142,0.01055 -0.0214,0.0067 -0.0128,-0.0069 -0.014,-0.02433 -0.006,-0.03552 0.0111,-0.01643 0.0346,-0.01752 0.0497,-0.0061 0.0201,0.01519 0.0211,0.04488 0.006,0.06383 -0.0192,0.02384 -0.0552,0.02472 -0.078,0.0056 -0.0276,-0.02318 -0.0283,-0.06555 -0.005,-0.09214 0.0271,-0.03133 0.0759,-0.03198 0.10629,-0.005 0.0351,0.0311 0.0356,0.08625 0.005,0.120446 -0.035,0.03886 -0.0966,0.03926 -0.1346,0.0045 -0.0426,-0.039 -0.0429,-0.106968 -0.004,-0.148754 0.0429,-0.04639 0.11733,-0.04655 0.16291,-0.0039 0.0502,0.04688 0.0502,0.127695 0.004,0.177063 -0.0508,0.05393 -0.13805,0.05384 -0.19121,0.0034 -0.0577,-0.05476 -0.0575,-0.148426 -0.003,-0.20537 0.0587,-0.06148 0.15879,-0.06114 0.21952,-0.0029 0.0653,0.06263 0.0648,0.169161 0.003,0.233679 -0.0666,0.06903 -0.17953,0.06845 -0.24783,0.0023 -0.0728,-0.0705 -0.0721,-0.189898 -0.002,-0.261987 0.0744,-0.07659 0.20027,-0.07576 0.27615,-0.0018 0.0804,0.07837 0.0794,0.210638 0.001,0.290296 -0.0823,0.08414 -0.22101,0.08306 -0.30445,0.0012 -0.0879,-0.08623 -0.0867,-0.231378 -9.5e-4,-0.318604 0.0902,-0.0917 0.24175,-0.09037 0.33276,-6.8e-4 0.0955,0.09409 0.094,0.252119 4.1e-4,0.346911 -0.098,0.09926 -0.26249,0.09768 -0.36107,1.37e-4 -0.10303,-0.101958 -0.10134,-0.272861 1.4e-4,-0.37522 0.10588,-0.106814 0.28323,-0.104993 0.38937,4.08e-4 0.11059,0.10982 0.10865,0.293603 -6.8e-4,0.403528 -0.11375,0.114372 -0.30397,0.112303 -0.41768,-9.52e-4 -0.11815,-0.117682 -0.11596,-0.314347 0.001,-0.431837 0.12161,-0.12193 0.32472,-0.119614 0.44599,0.0015 0.12571,0.125543 0.12327,0.33509 -0.002,0.460145 -0.12947,0.129489 -0.34546,0.126926 -0.47429,-0.002 -0.13327,-0.133404 -0.13059,-0.355833 0.002,-0.488452 0.13733,-0.13705 0.3662,-0.134238 0.50261,0.0026 0.14082,0.141265 0.13789,0.376578 -0.003,0.516761 -0.1452,0.144609 -0.38695,0.14155 -0.53092,-0.0031 -0.14839,-0.149126 -0.1452,-0.397322 0.003,-0.545069 0.15306,-0.152169 0.4077,-0.148862 0.55923,0.0037 0.15595,0.156986 0.15252,0.418067 -0.004,0.573378 -0.16091,0.159729 -0.42844,0.156175 -0.58753,-0.0042 -0.16351,-0.164846 -0.15983,-0.438811 0.004,-0.601686 0.16878,-0.167289 0.44918,-0.163487 0.61584,0.0048 0.17107,0.172707 0.16714,0.459556 -0.005,0.629994 -0.17664,0.174851 -0.46993,0.170801 -0.64415,-0.0053 -0.17863,-0.180566 -0.17446,-0.480301 0.006,-0.658302 0.18449,-0.182411 0.49067,-0.178113 0.67245,0.0059 0.18619,0.188426 0.18177,0.501045 -0.006,0.68661 -0.19236,0.189972 -0.51142,0.185426 -0.70077,-0.0064 -0.19375,-0.196286 -0.18908,-0.521791 0.007,-0.714919 0.20022,-0.197532 0.53217,-0.192739 0.72908,0.0069 0.20131,0.204145 0.19639,0.542536 -0.007,0.743226 -0.20807,0.205094 -0.55291,0.200053 -0.75738,-0.0075 -0.20887,-0.212005 -0.20371,-0.563282 0.008,-0.771535 0.21593,-0.212655 0.57365,-0.207366 0.78569,0.008 0.21643,0.219864 0.21102,0.584027 -0.008,0.799843 -0.2238,0.220215 -0.5944,0.214679 -0.814,-0.0086 -0.224,-0.227724 -0.21834,-0.604773 0.009,-0.828152 0.23165,-0.227776 0.61514,-0.221992 0.8423,0.0091 0.23156,0.235583 0.22565,0.625518 -0.009,0.85646 -0.23951,0.235337 -0.63589,0.229305 -0.87061,-0.0097 -0.23912,-0.243442 -0.23297,-0.646263 0.01,-0.884767 0.24737,-0.242899 0.65664,-0.236619 0.89892,0.01021 0.24668,0.251301 0.24028,0.667009 -0.0105,0.913076 -0.25523,0.25046 -0.67738,0.243933 -0.92723,-0.01075 -0.25424,-0.25916 -0.24758,-0.687754 0.011,-0.941384 0.26309,-0.258021 0.69812,-0.251246 0.95554,0.0113 0.2618,0.26702 0.2549,0.7085 -0.0116,0.969693 -0.27095,0.265583 -0.71887,0.258559 -0.98385,-0.01184 -0.26936,-0.274879 -0.26221,-0.729246 0.0121,-0.998001 0.27881,-0.273144 0.73962,-0.265873 1.01216,0.01238 0.27692,0.282738 0.26953,0.749992 -0.0127,1.026309 -0.28666,0.280706 -0.76036,0.273187 -1.04046,-0.01293 -0.28449,-0.290597 -0.27684,-0.770737 0.0132,-1.054617 0.29453,-0.288267 0.78111,-0.2805 1.06877,0.01347 0.29205,0.298455 0.28416,0.791482 -0.0137,1.082925 -0.30239,0.295828 -0.80186,0.287814 -1.09708,-0.01402 -0.29961,-0.306315 -0.29147,-0.812229 0.0143,-1.111234 0.31024,-0.30339 0.8226,-0.295127 1.12538,0.01456 0.30717,0.314173 0.29879,0.832974 -0.0148,1.139542 -0.3181,0.310951 -0.84335,0.302441 -1.1537,-0.01511 -0.31473,-0.322033 -0.30609,-0.853721 0.0154,-1.16785 0.32596,-0.318513 0.8641,-0.309755 1.18201,0.01565 0.32229,0.329891 0.31341,0.874466 -0.0159,1.196158 -0.33382,0.326075 -0.88484,0.317069 -1.21031,-0.01619 -0.32985,-0.337751 -0.32072,-0.895213 0.0165,-1.224467 0.34168,-0.333636 0.90558,-0.324382 1.23862,0.01674 0.33742,0.345609 0.32804,0.915958 -0.017,1.252775 -0.34954,0.341197 -0.92633,0.331696 -1.26693,-0.01728 -0.34498,-0.353467 -0.33535,-0.936704 0.0175,-1.281083 0.3574,-0.348759 0.94708,-0.339009 1.29524,0.01783 0.35254,0.361327 0.34267,0.95745 -0.0181,1.309391 -0.36525,0.356321 -0.96782,0.346324 -1.32354,-0.01837 -0.36011,-0.369185 -0.34998,-0.978196 0.0186,-1.337699 0.37312,-0.363883 0.98857,-0.353638 1.35185,0.01892 0.36767,0.377045 0.3573,0.998942 -0.0192,1.366008 -0.38098,0.371444 -1.00932,0.360951 -1.38017,-0.01946 -0.37522,-0.384903 -0.3646,-1.019688 0.0197,-1.394316 0.38883,-0.379005 1.03006,-0.368265 1.40847,0.02001 0.3372,0.345991 0.3761,0.900138 0.0932,1.291185"
       transform="matrix(0.67666667,0,0,0.65041911,135.65869,160.57596)" />
  </g>
  <path
     style="fill:none;fill-opacity:1"
     d="M 274.51539,697.16757 C 209.00298,661.61789 168.9015,589.79263 172.96513,515.28211 176.56455,449.2834 214.12089,387.61744 271.37235,353.70154 l 17.86045,-10.58057 0.52027,91.23158 c 0.28616,50.17737 0.28616,131.63476 0,181.01644 l -0.52027,89.78484 -14.71741,-7.98626 z"
     id="path8409"
     inkscape:connector-curvature="0" />
  <path
     style="fill:none;fill-opacity:1"
     d="M 274.51539,697.16757 C 209.00298,661.61789 168.9015,589.79263 172.96513,515.28211 176.56455,449.2834 214.12089,387.61744 271.37235,353.70154 l 17.86045,-10.58057 0.52027,91.23158 c 0.28616,50.17737 0.28616,131.63476 0,181.01644 l -0.52027,89.78484 -14.71741,-7.98626 z"
     id="path8411"
     inkscape:connector-curvature="0" />
  <path
     style="fill:none;fill-opacity:1"
     d="m 338.7328,719.87065 -4.5,-0.86674 0,-194.73836 0,-194.73834 8.5,-1.05139 c 24.02923,-2.97225 32.01064,-3.17997 48.84013,-1.27109 10.08708,1.14413 19.76208,2.62588 21.5,3.29279 2.84955,1.09347 3.15987,20.12512 3.15987,193.79325 l 0,192.58072 -12.66383,2.20532 c -12.06335,2.10074 -55.30228,2.63014 -64.83617,0.79384 z"
     id="path8413"
     inkscape:connector-curvature="0" />
  <path
     style="fill:none;fill-opacity:1"
     d="m 338.7328,719.87065 -4.5,-0.86674 0,-194.73836 0,-194.73834 8.5,-1.05139 c 24.02923,-2.97225 32.01064,-3.17997 48.84013,-1.27109 10.08708,1.14413 19.76208,2.62588 21.5,3.29279 2.84955,1.09347 3.15987,20.12512 3.15987,193.79325 l 0,192.58072 -12.66383,2.20532 c -12.06335,2.10074 -55.30228,2.63014 -64.83617,0.79384 z"
     id="path8415"
     inkscape:connector-curvature="0" />
  <path
     style="fill:none;fill-opacity:1"
     d="m 462.2328,524.34183 c 0,-96.28284 0.56544,-175.05971 1.25654,-175.05971 3.28005,0 23.12947,12.90965 35.21935,22.90593 25.2061,20.84116 46.6778,51.00646 57.54009,80.83728 l 5.55545,15.25678 14.21428,0.58762 14.21429,0.58762 0,70.91238 0,70.91238 -20.7364,0 -20.73639,0 -7.76361,13.28336 c -15.22388,26.0477 -45.49891,56.16734 -70.63891,70.27636 l -8.12469,4.55972 0,-175.05972 z"
     id="path8417"
     inkscape:connector-curvature="0" />
  <path
     style="fill:none;fill-opacity:1"
     d="m 462.2328,524.34183 c 0,-96.28284 0.56544,-175.05971 1.25654,-175.05971 3.28005,0 23.12947,12.90965 35.21935,22.90593 25.2061,20.84116 46.6778,51.00646 57.54009,80.83728 l 5.55545,15.25678 14.21428,0.58762 14.21429,0.58762 0,70.91238 0,70.91238 -20.7364,0 -20.73639,0 -7.76361,13.28336 c -15.22388,26.0477 -45.49891,56.16734 -70.63891,70.27636 l -8.12469,4.55972 0,-175.05972 z"
     id="path8419"
     inkscape:connector-curvature="0" />
</svg>
